<?xml version="1.0" standalone="no"?><!DOCTYPE svg PUBLIC "-//W3C//DTD SVG 1.1//EN" "http://www.w3.org/Graphics/SVG/1.1/DTD/svg11.dtd"><svg class="icon" width="200px" height="199.80px" viewBox="0 0 1025 1024" version="1.1" xmlns="http://www.w3.org/2000/svg"><path d="M1018.314496 385.08032c-60.8512-54.5536-235.78624-63.45728-327.61344-76.32384-35.40992-64.59392-115.6352-294.528-185.3184-293.504C445.888256 16.128 368.094976 238.28992 330.795776 303.5392c-75.31008 14.42304-301.27616 27.22816-328.9088 95.77984-23.12192 57.27744 173.79328 183.08096 194.46784 251.20768 34.70336 114.33984-71.99232 326.03136 12.64128 352.75776 54.4 17.1776 195.00544-80.93696 252.20096-110.35136 20.70016-9.5488 28.21632-17.92 49.58208-9.73312 53.04832 20.33664 283.38176 147.94752 315.35104 122.10688 38.0416-30.75072 1.64864-198.15936-7.63904-247.9872 4.9152-4.12672 104.81664-93.85472 78.56128-85.79072-142.7456 43.89376-611.83488 124.19584-644.20864 54.12352-20.54656-44.47232 336.74752-214.08256 319.90784-260.28544-14.42816-39.61856-345.99936-24.8576-345.99936-24.8576 79.0528-80.36352 459.04384-114.37568 503.60832-25.84064 32.25088 64.07168-242.40128 145.54624-229.05856 201.92256 5.248 22.19008 261.33504 56.79616 312.14592 31.44192C854.443776 627.57888 1060.626176 423.0144 1018.314496 385.08032z" fill="#f4ea2a" /></svg>