<?xml version="1.0" standalone="no"?><!DOCTYPE svg PUBLIC "-//W3C//DTD SVG 1.1//EN" "http://www.w3.org/Graphics/SVG/1.1/DTD/svg11.dtd"><svg t="1547797731555" class="icon" style="" viewBox="0 0 1024 1024" version="1.1" xmlns="http://www.w3.org/2000/svg" p-id="26788" xmlns:xlink="http://www.w3.org/1999/xlink" width="200" height="200"><defs><style type="text/css"></style></defs><path d="M779 188c16.569 0 30 13.431 30 30v588c0 16.569-13.431 30-30 30H245c-16.569 0-30-13.431-30-30V218c0-16.569 13.431-30 30-30h534zM627 470.75H397V317.235c6.185-6.314 10-14.957 10-24.485 0-19.317-15.683-35-35-35s-35 15.683-35 35c0 9.528 3.815 18.171 10 24.485V470.75c0 91.127 73.873 165 165 165s164.999-73.872 165-165V317.235c6.185-6.314 10-14.957 10-24.485 0-19.317-15.683-35-35-35s-35 15.683-35 35c0 9.528 3.815 18.171 10 24.485V470.75z m-115 0h115c-0.001 63.514-51.488 115-115 115-63.513 0-115-51.487-115-115h115z" fill="#cf3f2c" p-id="26789"></path></svg>