<?xml version="1.0" standalone="no"?><!DOCTYPE svg PUBLIC "-//W3C//DTD SVG 1.1//EN" "http://www.w3.org/Graphics/SVG/1.1/DTD/svg11.dtd"><svg class="icon" width="200px" height="200.00px" viewBox="0 0 1024 1024" version="1.1" xmlns="http://www.w3.org/2000/svg"><path d="M478.1 138.7c44.1 0 87.1 8.4 127.8 24.8 42.1 17.1 79.8 42.1 112.3 74.6 60.6 60.6 95.7 141.1 99 226.6 3.3 85.1-25.2 167.6-80 232.3l-18.4 21.7-21.8 18.4c-31 26.2-66 46.5-104 60.2-37 13.3-75.8 20.1-115.3 20.1-44 0-87-8.3-127.6-24.8-42-17-79.7-42.1-112.1-74.5-32.4-32.4-57.5-70.2-74.6-112.3-16.5-40.7-24.8-83.6-24.8-127.8 0-44.1 8.4-87.1 24.8-127.8 17.1-42.1 42.1-79.8 74.6-112.3 32.4-32.4 70.2-57.5 112.3-74.6C391 147 434 138.7 478.1 138.7m0-74.7c-106 0-212 40.4-292.8 121.3-161.7 161.7-161.7 423.9 0 585.6C266.1 851.7 371.9 892 477.7 892c95.2 0 190.5-32.7 267.6-98l155.8 155.8c6.7 6.7 15.6 10.1 24.4 10.1 8.8 0 17.7-3.4 24.4-10.1 13.4-13.4 13.4-35.4 0-48.8L794.1 745.3c137.8-162.7 130.3-406.5-23.2-560C690.1 104.4 584.1 64 478.1 64z" fill="#8a8a8a" /></svg>