<?xml version="1.0" standalone="no"?><!DOCTYPE svg PUBLIC "-//W3C//DTD SVG 1.1//EN" "http://www.w3.org/Graphics/SVG/1.1/DTD/svg11.dtd"><svg t="1547798524549" class="icon" style="" viewBox="0 0 1024 1024" version="1.1" xmlns="http://www.w3.org/2000/svg" p-id="1139" xmlns:xlink="http://www.w3.org/1999/xlink" width="200" height="200"><defs><style type="text/css"></style></defs><path d="M1015.704 312.674c-4.477 0 9.214-74.397-37.248-140.24-44.355-67.191-118.653-81.603-117.009-85.716-1.513-5.199 81.145 2.435 130.827 76.339 50.743 73.114 27.775 152.907 23.43 149.617" fill="#cf3f2c" p-id="1140"></path><path d="M968.717 314.912c-3.687 0 7.501-60.972-30.534-114.903-36.395-55.115-97.267-66.895-95.951-70.284-1.186-4.311 66.532 1.941 107.203 62.551 41.657 59.952 22.836 125.334 19.282 122.636" fill="#cf3f2c" p-id="1141"></path><path d="M924.165 307.31c-2.501 0.066 5.461-43.927-21.915-82.788-26.258-39.715-70.087-48.205-69.166-50.64-0.854-3.092 47.91 1.415 77.26 45.112 30.01 43.172 16.386 90.291 13.821 88.316M814.725 397.272c41.327-30.832 49.882-89.336 19.018-130.632-30.865-41.394-89.435-49.949-130.829-19.084-29.549 22.178-42.314 58.505-35.866 92.528l-287.85 214.834c-17.966 13.523-21.783 39.092-8.292 57.155 13.491 17.965 39.09 21.684 57.057 8.193l287.915-214.9c30.798 15.926 69.165 14.018 98.847-8.094" fill="#cf3f2c" p-id="1142"></path><path d="M229.68 319.057c-101.148 72.062-100.49 246.653 1.514 389.92 102.07 143.265 266.79 200.948 367.939 128.854 89.039-63.407 99.239-206.083 30.864-337.01l-141.95 105.986 104.571 9.443c13.688 4.376 24.547 19.348 24.611 33.232 0.065 13.953-10.529 21.488-23.889 16.979l-161.495-18.656c-0.592 0.329-1.316 0.592-1.974 0.854l128.394 96.378c9.345 13.063 9.411 28.957 0.131 35.57-9.214 6.614-24.351 1.283-33.957-11.846l-133.922-92.792 44.159 101.018c1.974 13.064-8.227 20.533-22.31 16.618-13.952-4.048-28.035-16.553-31.852-27.971l-48.37-96.146-53.371 43.73c-5.396 4.31-18.492-1.48-28.43-13.688-9.937-12.24-12.964-26.06-7.831-30.239l51.66-42.611-78.51-66.763c-8.357-7.832-14.413-26.424-12.964-42.053 1.579-15.629 10.792-22.506 19.94-15.037l76.01 70.086-32.049-158.238c-6.582-14.938-5.594-31.72 3.75-38.333 9.345-6.614 24.021-1.152 31.523 12.865l33.759 155.541 51.661-163.272c1.842-14.643 12.964-22.375 25.863-17.736 13.03 4.639 22.638 20.17 20.401 34.912l-32.51 103.584 148.597-110.923c-100.49-100.553-233.424-133.82-319.963-72.256" fill="#cf3f2c" p-id="1143"></path><path d="M429.937 648.696c0.593-0.329 1.317-0.626 1.843-0.955l-3.686-0.461 1.843 1.416z" fill="#cf3f2c" p-id="1144"></path><path d="M599.133 837.832c-101.149 72.094-265.869 14.41-367.939-128.854C129.19 565.71 128.531 391.12 229.68 319.058c86.54-61.597 219.408-28.297 319.964 72.258l44.225-33.036c-125.894-133.889-297.92-180.252-408.545-101.478-125.498 89.436-124.577 305.815 1.909 483.501 126.485 177.586 330.888 249.152 456.255 159.784 113.652-80.847 123.655-266.033 30.601-432.169l-44.092 32.904c68.375 130.927 58.175 273.603-30.864 337.01M151.17 777.714c-37.709-52.942-64.099-109.309-79.498-164.688-5.198 2.371-10.2 5.199-15.005 8.359-65.414 43.729-75.68 142.937-23.032 221.645 52.581 78.773 148.136 107.137 213.55 63.538 5.726-3.849 10.991-8.095 15.794-12.733-40.67-30.931-78.905-69.89-111.809-116.121M48.902 829.343c-66.205-90.028-22.639-171.565 14.741-185.123-40.735 41.855-40.735 107.565-14.741 185.123" fill="#cf3f2c" p-id="1145"></path></svg>