<?xml version="1.0" standalone="no"?><!DOCTYPE svg PUBLIC "-//W3C//DTD SVG 1.1//EN" "http://www.w3.org/Graphics/SVG/1.1/DTD/svg11.dtd"><svg t="1547710633987" class="icon" style="" viewBox="0 0 1024 1024" version="1.1" xmlns="http://www.w3.org/2000/svg" p-id="1111" xmlns:xlink="http://www.w3.org/1999/xlink" width="200" height="200"><defs><style type="text/css"></style></defs><path d="M715.648 410.17c0-33.728-27.36-61.088-61.088-61.088s-61.088 27.36-61.088 61.088 27.36 61.088 61.088 61.088 61.088-27.36 61.088-61.088m-21.664 183.264H330.048c-14.912 0-25.408 14.144-20.416 27.456C339.2 699.834 418.624 756.346 512 756.346c93.408 0 172.832-56.512 202.4-135.456 4.992-13.312-5.504-27.456-20.416-27.456m-385.6-183.264c0 33.728 27.36 61.088 61.088 61.088s61.088-27.36 61.088-61.088-27.36-61.088-61.088-61.088-61.088 27.36-61.088 61.088M960 511.994c0 247.424-200.576 448-448 448-83.36 0-161.152-23.168-227.968-62.848l-184.8 52.768c-15.36 4.384-29.568-9.792-25.152-25.152l52.768-184.768C87.2 673.146 64 595.354 64 511.994c0-247.424 200.608-448 448-448 247.424 0 448 200.576 448 448" fill="#8a8a8a" p-id="1112"></path></svg>