<?xml version="1.0" standalone="no"?><!DOCTYPE svg PUBLIC "-//W3C//DTD SVG 1.1//EN" "http://www.w3.org/Graphics/SVG/1.1/DTD/svg11.dtd"><svg class="icon" width="200px" height="200.00px" viewBox="0 0 1024 1024" version="1.1" xmlns="http://www.w3.org/2000/svg"><path d="M433.4 215.8c-56.6-55.4-188.5-77.7-262.9 2C97.7 295.5 39 482.8 39 659.5c0 213.2 178.7 242.8 276.1 138 56.4-60.7 61.7-70.2 98.6-118.3h197.2c37.1 48.1 42.2 57.6 98.6 118.3 97.4 104.7 276.1 75.1 276.1-138 0-176.7-58.8-364-131.5-441.7-74.3-79.7-206.1-57.4-262.9-2-21.9 21.3-78.9 29.6-78.9 29.6s-57-8.3-78.9-29.6zM354.5 346v57.2h57.2c22.9 0 41.4 17.7 41.4 39.4S434.6 482 411.7 482h-57.2v57.2c0 22.9-17.7 41.4-39.4 41.4s-39.4-18.5-39.4-41.4V482h-57.2c-22.9 0-41.4-17.7-41.4-39.4s18.5-39.4 41.4-39.4h57.2V346c0-22.9 17.7-41.4 39.4-41.4s39.4 18.5 39.4 41.4z m355 27.6c0-27.2 22.1-49.3 49.3-49.3 27.2 0 49.3 22.1 49.3 49.3 0 27.2-22.1 49.3-49.3 49.3-27.2 0-49.3-22.1-49.3-49.3z m-98.6 118.3c0-27.2 22.1-49.3 49.3-49.3 27.2 0 49.3 22.1 49.3 49.3 0 27.2-22.1 49.3-49.3 49.3-27.2 0-49.3-22.1-49.3-49.3z" fill="#1296db" /></svg>