<?xml version="1.0" standalone="no"?><!DOCTYPE svg PUBLIC "-//W3C//DTD SVG 1.1//EN" "http://www.w3.org/Graphics/SVG/1.1/DTD/svg11.dtd"><svg t="1547712774121" class="icon" style="" viewBox="0 0 1024 1024" version="1.1" xmlns="http://www.w3.org/2000/svg" p-id="44016" xmlns:xlink="http://www.w3.org/1999/xlink" width="200" height="200"><defs><style type="text/css"></style></defs><path d="M933.65 446.92c-69.25-90.9-237.86-242-421.64-242S159.3 356 90.05 446.92c-15.62 20.76-24.21 43.3-24.73 65.57 0.57 22.27 9.15 44.76 24.78 65.52C159.36 668.92 328 820 511.9 820s352.55-151.08 421.8-242c15.78-20.76 24.44-43.19 25-65.52-0.62-22.27-9.23-44.81-25-65.57M511.85 704.65c-102.74 0-186.13-86.12-186.13-192.16S409.16 320.3 511.85 320.3 698 406.41 698 512.5s-83.41 192.15-186.15 192.15m0-240.2c0-26.73 15.23-50 37.06-60.72a107.17 107.17 0 0 0-37.06-6.52c-61.61 0-111.67 51.67-111.67 115.29s50.06 115.29 111.67 115.29 111.67-51.73 111.67-115.29v-1A63.87 63.87 0 0 1 577 531.7c-35.87 0-65.13-30.13-65.13-67.25" fill="#8a8a8a" p-id="44017"></path></svg>