<?xml version="1.0" standalone="no"?><!DOCTYPE svg PUBLIC "-//W3C//DTD SVG 1.1//EN" "http://www.w3.org/Graphics/SVG/1.1/DTD/svg11.dtd"><svg t="1547798634491" class="icon" style="" viewBox="0 0 1024 1024" version="1.1" xmlns="http://www.w3.org/2000/svg" p-id="5937" xmlns:xlink="http://www.w3.org/1999/xlink" width="200" height="200"><defs><style type="text/css"></style></defs><path d="M561.44 214.4c0 35.52 18.72 68.16 49.44 85.92 30.72 17.76 68.64 17.76 99.36 0s49.44-50.4 49.44-85.92-18.72-68.16-49.44-85.92c-30.72-17.76-68.64-17.76-99.36 0s-49.44 50.88-49.44 85.92" fill="#1296db" p-id="5938"></path><path d="M875.36 291.68c-33.6-24-61.44 0-61.44 0-78.24 98.88-140.64 69.12-155.04 65.76-14.88-3.36-96.96-48.48-114.72-56.64-17.28-8.16-40.8-24-118.08-19.2-87.84 7.68-163.68 87.84-171.36 120.96-7.68 33.12 50.4 66.24 74.88 40.32 84.96-110.88 161.28-66.72 161.28-66.72S440 470.24 383.84 574.88c-91.2 112.8-153.6 66.24-187.2 51.84-34.08-14.4-64.32 24.96-64.32 49.92s55.2 63.84 144.96 63.84 161.28-74.88 169.92-85.44c25.92 1.92 138.24 78.72 152.16 91.68 14.4 12.96 70.08 137.28 74.4 145.44 4.8 7.68 28.32 25.44 56.16 11.52 27.84-13.92 24.48-49.44 24.48-49.44s-49.44-128.16-81.6-160.32-130.08-94.56-130.08-94.56 69.6-127.68 86.88-157.44c170.4 44.16 251.04-91.68 251.04-91.68s28.32-34.56-5.28-58.56z" fill="#1296db" p-id="5939"></path></svg>