<?xml version="1.0" standalone="no"?><!DOCTYPE svg PUBLIC "-//W3C//DTD SVG 1.1//EN" "http://www.w3.org/Graphics/SVG/1.1/DTD/svg11.dtd"><svg t="1547797918140" class="icon" style="" viewBox="0 0 1028 1024" version="1.1" xmlns="http://www.w3.org/2000/svg" p-id="27539" xmlns:xlink="http://www.w3.org/1999/xlink" width="200.78125" height="200"><defs><style type="text/css"></style></defs><path d="M611.719843 234.107434c-3.960464 0-7.480877-1.760206-9.681135-4.840567l-10.561238-13.641598c-4.400516-5.280619-3.520413-12.761495 1.760207-17.162012L828.665266 3.080361c2.200258-1.760206 4.840567-3.080361 7.920928-3.080361 3.520413 0 6.600774 1.320155 9.241083 3.960464l108.692738 117.053717c3.080361 3.080361 3.960464 7.480877 3.08036 11.881393s-4.400516 7.480877-8.801031 8.801031L615.240255 233.667383c-1.320155 0.440052-2.200258 0.440052-3.520412 0.440051zM416.776998 234.107434c-1.320155 0-2.200258 0-3.520413-0.440051L79.697496 141.696605c-4.400516-1.320155-7.480877-4.400516-8.801031-8.801031s0-8.801031 3.080361-11.881393L182.669563 4.400516c2.640309-2.640309 5.72067-3.960464 9.241083-3.960464 3.080361 0 5.72067 0.880103 7.920928 3.080361L435.259164 198.463257c5.280619 4.400516 6.160722 11.881392 1.760206 17.162012L426.458132 229.266867c-2.200258 3.080361-5.72067 4.840567-9.681134 4.840567z" p-id="27540" fill="#e09c1d"></path><path d="M897.313311 254.349807H131.18353c-8.801031 0-17.602063 0.880103-26.403094 2.640309C33.932133 271.951869-11.83323 341.039966 2.688472 411.888268l103.85217 504.739149c12.761495 62.487323 67.767942 107.372583 131.575419 107.372583h551.824667c63.807477 0 118.813924-44.88526 131.575419-107.372583L1025.368317 411.888268c1.760206-8.801031 2.640309-17.602063 2.640309-26.403094 0.440052-72.168457-58.086807-131.135367-130.695315-131.135367zM351.209314 604.630855c-12.761495 13.201547-28.603352 19.802321-47.965621 19.802321-17.162011 0-32.123765-6.600774-44.445208-19.802321s-18.482166-29.043404-18.482166-47.965621c0-20.242372 6.160722-36.52428 18.482166-49.725827 12.321444-13.201547 27.723249-19.802321 46.205414-19.802321 17.602063 0 33.003868 6.600774 45.765363 20.242373 12.761495 13.641599 19.362269 29.923507 19.362269 48.405672 0.440052 19.802321-5.72067 35.644177-18.922217 48.845724z m240.708208 231.027074c-2.200258 0.440052-4.400516 0.880103-7.040825 0.880103-6.600774 0-28.1633-2.200258-43.565105-29.483455-15.841856 28.1633-40.044693 31.243661-50.605931 28.603352-39.16459-8.801031-40.924796-49.285776-40.924796-53.686292 0-4.840567 1.320155-9.681135 3.960465-13.201547 2.640309-3.080361 5.72067-4.840567 9.241082-4.840567 7.040825-0.440052 12.321444 6.160722 13.641599 14.961753v2.200258c0 0.880103 1.320155 15.841856 18.482166 19.802321 1.760206 0.440052 18.042114 2.640309 27.723249-23.762785l0.440051-1.320155c3.080361-6.600774 9.241083-13.641599 17.162012-14.08165 3.960464 0 11.441341 1.320155 17.602062 13.201547l0.880103 1.760206c9.681135 27.283197 27.283197 24.202836 27.723249 24.202837 17.162011-3.960464 18.042114-18.922217 18.482166-19.802321v-2.200258c1.320155-8.801031 6.600774-14.961753 13.641599-14.961753 3.520413 0 7.040825 1.760206 9.241083 4.840567 2.640309 3.520413 4.400516 7.920928 4.400515 12.761496 0 1.760206-0.880103 44.88526-40.484744 54.126343z m228.386764-231.027074c-12.761495 13.201547-28.603352 19.802321-47.965621 19.802321-17.162011 0-32.123765-6.600774-44.445208-19.802321s-18.482166-29.043404-18.482166-47.965621c0-20.242372 6.160722-36.52428 18.482166-49.725827 12.321444-13.201547 27.723249-19.802321 46.205414-19.802321 17.602063 0 33.003868 6.600774 45.765364 20.242373 12.761495 13.641599 19.362269 29.923507 19.362269 48.405672 0.440052 19.802321-6.160722 35.644177-18.922218 48.845724z" p-id="27541" fill="#e09c1d"></path></svg>